<?xml version="1.0" encoding="utf-8"?>
<!-- Generator: Adobe Illustrator 21.1.0, SVG Export Plug-In . SVG Version: 6.00 Build 0)  -->
<svg version="1.1" id="Слой_1" xmlns="http://www.w3.org/2000/svg" xmlns:xlink="http://www.w3.org/1999/xlink" x="0px" y="0px"
	 viewBox="0 0 269 135.2" style="enable-background:new 0 0 269 135.2;" xml:space="preserve">
<style type="text/css">
	.st0{fill:#FFFFFF;}
</style>
<g>
	<g>
		<path class="st0" d="M125,0.3c-2.1,0.5-6.4,1.7-9.8,3.5c4,0.4,5.9,0.6,8.4,1c8.1,1.3,15.7,3.6,22.8,8.1c9.3,5.9,9.5,14.3,4.1,21.9
			c-4,5.7-9.6,9.9-15.3,13.7c-12.8,8.3-35.3,18-50.8,21.9c1-1.5,2.2-2.1,3.6-2.5c8.2-2.9,16.5-5.7,24.4-9.3
			c10.6-4.7,20.5-10.6,28.9-18.7c2.6-2.5,4.8-5.2,6.4-8.5c2.4-4.9,1.8-9-1.9-13.1c-6.3-7-14.4-10.4-23.5-12
			c-3.3-0.6-5.8-0.8-9.4-0.8c-3.2,2.1-7.1,5.6-10.3,9.2C83.2,38.9,64.1,63.1,44.7,87.1c-5.6,7-12.4,13-20.3,17.5
			c-5.1,2.9-10.6,4.3-16.5,3.3c-2.5-0.4-4.8-1.2-6.3-3.5c-0.6-1-0.9-1.9-0.4-3c0.9-0.5,1.7-0.2,2.4,0.2c0.4,0.5,0.3,1.1,0.3,1.7
			c0.3,2.7,1.4,3.8,4.1,4.1c4.7,0.5,9.1-0.6,13-3.1c6.1-3.9,11.3-8.9,16-14.5C57.4,65.8,76.5,41,96.3,16.6c3.5-4.3,7.6-8,12.6-11.4
			c-3.1,0-5.9-0.2-8.5-0.2c-23.6,0.1-45,6.7-65.3,18.5c-8.4,4.9-16,10.6-21.8,18.5c-3.5,4.7-5.6,9.9-6,15.8c-0.3,4,0.8,7.3,3.5,10.3
			c4.1,4.5,9.4,6.6,15.2,7.8c1,0.2,2,0.4,3,0.9C20.4,76,12.4,73.7,6.8,66.4C2.4,60.9,3,55,5.3,49c2.6-6.9,7.6-12,13.3-16.5
			C38.6,16.6,61.7,7.7,86.9,4.3c7.3-1,16.4-0.9,23.7-0.7c3.9-1.8,2.7-1.4,6.8-2.6C118.9,0.4,123.8,0,125,0.3z"/>
		<path class="st0" d="M64.8,82c1.7-0.2,2.9-1.6,4.4-2.2c1.8-0.8,3.6-1.7,6-0.7c2.5,5.8-3.5,8.6-5.1,13.1c2.4,0.4,3.8-1.7,5.9-1.9
			c-1.4,2.8-7.8,5.5-10.9,4.7c-0.6-1.6,0.1-2.9,0.9-4.1c1-1.5,2.3-2.9,3.3-4.3c0.9-1.3,1.8-2.6,1.3-4.3c-1.2-0.7-2.2-0.4-3.2,0.1
			c-3.8,2.2-7.7,4.3-10,8.3c-0.6,1.1-1.5,2.2-2.5,3.1c-1.3,1.4-3,2-5,1.5c-0.3-1.2,0.6-1.7,1.1-2.3c17.7-22.3,35.3-44.6,53-66.9
			c2.5-3.2,5.6-5.6,9.3-7.4c1.1-0.5,2.2-1,3.6-0.9c0,0.3,0,0.5-0.1,0.6c-7.3,5-11.6,12.7-17,19.3C88.5,51.7,77.4,65.9,66.2,80
			C65.7,80.6,65.3,81.3,64.8,82L64.8,82z"/>
		<path class="st0" d="M144.4,131.3c2.7,0.7,5.3,1.8,8.1,2.1c12.9,1.5,24.5-5.5,29.2-17.6c2.6-6.7,3.7-13.8,3.9-20.9
			c0.2-5.1,0.4-10.1,0.5-15.2c0.4-10.5,9.1-21.4,19.2-24.2c1.7-0.5,2.5-0.4,4.3,0.3c0.2,1-0.5,1.4-1.1,2c-11.5-0.4-18,9.3-19,20.3
			c-0.4,4.8-0.3,9.6-0.1,14.4c0.3,7.3-0.3,14.4-3.1,21.2c-4.5,10.9-12,18.4-23.8,20.8c-5.1,1-10.3,0.7-15.2-1.2
			C146.4,132.8,145.1,132.5,144.4,131.3L144.4,131.3z"/>
		<path class="st0" d="M135.3,94.8c-1.3,0.2-2.5,0.4-4.3,0.7c3.1-4.6,7-8,9.3-12.7c-2.2-0.6-3.8,0.4-5.2,1.4c-3.2,2.2-5.7,5-8,8.1
			c-0.9,1.3-2,2.5-3.6,3c-0.9,0.3-1.7,0.5-2.8-0.2c2.4-4.5,6.8-7.6,8.5-12.6c-1.7-0.7-2.5,1-4,0.5c2.8-2.4,6.2-3.4,9.7-4.1
			c1.3,1.6-0.3,2.5-0.6,4c3.8-1.2,7-4.5,11.2-3.6c0.7,1.5-0.6,2.3-0.8,3.6c3.9-0.9,6.9-4.5,11.5-3.5c-0.1,3-2.2,4.6-3.7,6.6
			c-1.5,1.9-3.3,3.7-4.1,6.3c2.3,0.3,3.7-1.6,5.8-2c-1.7,3.1-7.9,5.8-11.2,4.8c-0.1-5.5,5.4-7.8,7.5-12.7
			C143.1,84.1,139.3,89.6,135.3,94.8z"/>
		<path class="st0" d="M265.5,94.9c-3.8-2-7.6-4.1-12-4.6c-9.5-1.2-18.9-1-27.7,3.3c-2.6,1.3-5.4,2.1-8.4,1.8
			c-3.8-0.3-5.6-3.6-3.4-6.7c3.6-5.2,8.3-9,14.8-10c0.7-0.1,1.3-0.2,2-0.2c5.1,0,6.6,2.7,4.2,7.1c-0.5,0.9-1.4,1.7-1.4,2.8
			c4.1,0,8.1-0.1,12.2,0c5.6,0.2,11.1,1.1,16.2,3.5C263.3,92.7,264.7,93.4,265.5,94.9L265.5,94.9z M217.8,93c4.4,2.2,13-5.6,13.5-12
			c-1.7-1.7-3.4-0.4-4.9,0.4C221.7,83.9,218.9,87.8,217.8,93z"/>
		<path class="st0" d="M167.9,92c-1.5,0.8-3,1.7-4.6,2.5c-2.2,1-4.4,1.5-6.6-0.1c-0.9-2.6,0.1-4.8,1.8-6.5c6.3-6.4,14.2-9,23.6-9.2
			c-2.7,4.9-6.9,8.4-9.5,13.3c2.7,0.6,3.9-1.7,5.9-2.1c-0.6,2.9-7.7,6.1-10.8,5C167,93.8,167.8,92.9,167.9,92
			C167.8,92,167.9,92,167.9,92z M175.9,81c-7.2,0.3-14.9,7-14.1,12C168.2,91.1,171.5,85.8,175.9,81z"/>
		<path class="st0" d="M89.7,92c-1.6,0.4-2.7,1.6-4.1,2.3c-2.3,1.1-4.6,1.8-7.1,0.2c-0.8-2.2-0.1-4.2,1.3-5.7
			c6.2-6.9,14.2-9.8,23.3-10.1c0.2,0,0.4,0.2,0.9,0.4c-3,4.4-7.3,7.8-9.1,13.2c2.4-0.2,3.8-1.8,5.6-2.6c0.2,2.9-7.5,6.6-10.7,5.3
			C88.9,93.9,89.7,92.9,89.7,92L89.7,92z M97.2,81.2c-6.2,0-13.6,6-14.1,11.3C86.2,93.4,93.6,87.5,97.2,81.2z"/>
		<path class="st0" d="M115.1,83c1.7-0.5,2.9-1.9,4.4-2.8c1.8-1.1,3.6-1.8,5.8-1c-0.3,1.8-1.8,2.7-2.8,3.7c-1,0.4-1.2-0.8-2-0.7
			c-5.1,1.8-8.7,5.6-11.7,9.9c-1.7,2.4-3.7,3.3-6.9,3c2.7-4.6,7.3-7.6,9-12.8c-1.8-0.7-2.9,1.1-4.4,0.8c0.9-2,6.9-4.4,10.2-4.2
			C117.1,80.7,115.3,81.6,115.1,83L115.1,83z"/>
		<path class="st0" d="M216.2,79.3c-1.2,2-2.5,2.8-3.8,3.5c-1.1-0.4-0.3-1.9-1.6-2.4c-4.5-0.8-12.3,7.5-11,12.5
			c3.5,1.2,6.1-1.5,9.2-2.6c0.3,1.2-0.4,1.9-1.1,2.3c-3,1.4-5.9,3-9.4,2.9c-4.1-0.2-5.6-2.9-3.3-6.4c2.8-4.5,6.8-7.6,11.9-9.3
			C209.9,78.8,212.8,78.6,216.2,79.3z"/>
		<path class="st0" d="M32.1,77.3c-0.1,0-0.3,0-0.4,0c0,0,0,0,0,0C31.8,77.3,32,77.3,32.1,77.3C32.1,77.3,32.1,77.3,32.1,77.3z"/>
		<path class="st0" d="M143,130.3c0.6,0.1,1.2,0.4,1.5,1l0,0C143.7,131.3,143.3,130.9,143,130.3L143,130.3z"/>
		<path class="st0" d="M265.4,95L265.4,95L265.4,95z"/>
		<path class="st0" d="M143,130.3L143,130.3L143,130.3z"/>
		<g>
			<path class="st0" d="M268.1,47.2c0,1-0.2,2-0.6,2.8c-0.4,0.9-0.9,1.6-1.6,2.3c-0.7,0.6-1.4,1.2-2.3,1.5c-0.9,0.4-1.9,0.6-2.9,0.6
				c-1,0-2-0.2-2.9-0.5c-0.9-0.4-1.7-0.9-2.3-1.5c-0.6-0.6-1.2-1.4-1.5-2.3c-0.4-0.9-0.5-1.8-0.5-2.9c0-1,0.2-2,0.6-2.8
				c0.4-0.9,0.9-1.6,1.6-2.3c0.7-0.6,1.4-1.2,2.3-1.5c0.9-0.4,1.9-0.6,2.9-0.6c1.1,0,2,0.2,2.9,0.5c0.9,0.4,1.7,0.9,2.3,1.5
				c0.6,0.6,1.2,1.4,1.5,2.3C267.9,45.2,268.1,46.1,268.1,47.2z M266,47.2c0-0.8-0.1-1.5-0.4-2.2c-0.3-0.7-0.6-1.2-1.1-1.7
				c-0.5-0.5-1-0.9-1.7-1.1c-0.6-0.3-1.3-0.4-2.1-0.4c-0.8,0-1.5,0.1-2.1,0.4c-0.6,0.3-1.2,0.7-1.7,1.1c-0.5,0.5-0.8,1-1.1,1.7
				c-0.3,0.6-0.4,1.3-0.4,2.1c0,0.8,0.1,1.5,0.4,2.2c0.3,0.7,0.6,1.2,1.1,1.7c0.5,0.5,1,0.9,1.6,1.1c0.6,0.3,1.3,0.4,2.1,0.4
				c0.8,0,1.5-0.1,2.2-0.4c0.6-0.3,1.2-0.7,1.7-1.1c0.5-0.5,0.8-1,1.1-1.7C265.9,48.7,266,48,266,47.2z M264.2,50.4
				c0,0.1,0,0.1,0,0.1c0,0-0.1,0.1-0.2,0.1c-0.1,0-0.2,0-0.4,0.1s-0.4,0-0.6,0c-0.3,0-0.5,0-0.6,0c-0.2,0-0.3,0-0.4-0.1
				c-0.1,0-0.2-0.1-0.2-0.1c0-0.1-0.1-0.1-0.1-0.2l-0.3-1.2c-0.1-0.4-0.3-0.7-0.4-0.8c-0.1-0.1-0.4-0.2-0.6-0.2h-0.4v2.2
				c0,0.2-0.1,0.3-0.2,0.3c-0.1,0.1-0.4,0.1-0.9,0.1c-0.5,0-0.8,0-0.9-0.1c-0.2-0.1-0.2-0.2-0.2-0.3v-6c0-0.3,0.1-0.6,0.2-0.7
				c0.2-0.2,0.4-0.3,0.7-0.3h2.3c0.4,0,0.8,0,1.2,0.1c0.4,0.1,0.7,0.2,1,0.4c0.3,0.2,0.5,0.4,0.7,0.7s0.2,0.6,0.2,1
				c0,0.5-0.1,1-0.5,1.3c-0.3,0.3-0.7,0.6-1.2,0.7c0.3,0.1,0.6,0.2,0.8,0.4c0.2,0.2,0.4,0.5,0.6,0.9l0.4,1
				C264.2,50.1,264.2,50.3,264.2,50.4z M261.6,45.7c0-0.1,0-0.2-0.1-0.3c0-0.1-0.1-0.2-0.2-0.3c-0.1-0.1-0.2-0.1-0.3-0.2
				c-0.1,0-0.3-0.1-0.5-0.1h-0.7v1.7h0.6c0.4,0,0.7-0.1,0.8-0.2C261.5,46.1,261.6,45.9,261.6,45.7z"/>
		</g>
	</g>
</g>
</svg>
